<svg width="115" height="17" viewBox="0 0 115 17" fill="none" xmlns="http://www.w3.org/2000/svg">
<path d="M3.87867 16.5394C2.05425 17.5933 0.743652 16.7151 0.743652 15.153C0.743652 13.4902 0.743652 8.50072 0.743652 8.50072C0.743652 8.50072 0.743652 3.51127 0.743652 1.8484C0.743652 0.286352 2.05343 -0.591842 3.87867 0.461991C6.72019 2.10291 15.2439 7.0273 15.2439 7.0273C16.3773 7.68188 16.3773 9.31874 15.2439 9.97332C15.2439 9.97413 6.72019 14.8985 3.87867 16.5394Z" fill="#00C1FF"/>
<path d="M13.2605 16.538C11.4361 17.5918 10.1255 16.7136 10.1255 15.1516C10.1255 13.4887 10.1255 8.49925 10.1255 8.49925C10.1255 8.49925 10.1255 3.50981 10.1255 1.84693C10.1255 0.284888 11.4353 -0.593306 13.2605 0.460526C16.0394 2.06567 24.3762 6.88191 24.3762 6.88191C25.6209 7.60073 25.6209 9.39777 24.3762 10.1166C24.3754 10.1166 16.0394 14.9328 13.2605 16.538Z" fill="#BCEC30"/>
<mask id="mask0_1_2601" style="mask-type:alpha" maskUnits="userSpaceOnUse" x="10" y="0" width="16" height="17">
<path d="M13.2605 16.538C11.4361 17.5918 10.1255 16.7136 10.1255 15.1516C10.1255 13.4887 10.1255 8.49925 10.1255 8.49925C10.1255 8.49925 10.1255 3.50981 10.1255 1.84693C10.1255 0.284888 11.4353 -0.593306 13.2605 0.460526C16.0394 2.06567 24.3762 6.88191 24.3762 6.88191C25.6209 7.60073 25.6209 9.39777 24.3762 10.1166C24.3754 10.1166 16.0394 14.9328 13.2605 16.538Z" fill="#6FE4FF"/>
</mask>
<g mask="url(#mask0_1_2601)">
<g filter="url(#filter0_f_1_2601)">
<path d="M3.87916 16.5394C2.05473 17.5933 0.744141 16.7151 0.744141 15.153C0.744141 13.4902 0.744141 8.50072 0.744141 8.50072C0.744141 8.50072 0.744141 3.51127 0.744141 1.8484C0.744141 0.286352 2.05392 -0.591842 3.87916 0.461991C6.72068 2.10291 15.2444 7.0273 15.2444 7.0273C16.3778 7.68188 16.3778 9.31874 15.2444 9.97332C15.2444 9.97413 6.72068 14.8985 3.87916 16.5394Z" fill="#99D100"/>
</g>
</g>
<path d="M31.2547 11.4692L31.5726 10.7454C31.7893 10.2533 32.1793 10.1231 32.6705 10.4849C33.6095 11.1797 35.1553 11.6863 37.2212 11.6863C38.9837 11.6863 39.7349 11.2376 39.7349 10.702C39.7349 10.0941 39.1137 9.93489 38.088 9.80462L35.7476 9.50067C32.9306 9.12434 31.5148 8.11114 31.5148 6.34529C31.5148 4.44917 33.0606 2.94385 36.6433 2.94385C38.637 2.94385 39.9227 3.24781 40.7606 3.56624C41.6852 3.92809 41.8152 4.23205 41.8152 4.98471V5.96896C41.8152 6.57687 41.5985 6.77951 41.0062 6.77951H40.3417C39.7349 6.77951 39.5327 6.5624 39.5327 5.96896V5.65053C39.1426 5.52026 38.1747 5.33209 37.0478 5.33209C35.0687 5.33209 34.1152 5.69395 34.1152 6.30186C34.1152 6.75057 34.693 7.0111 35.7476 7.15584L38.0447 7.4598C40.8184 7.80718 42.292 8.64669 42.292 10.6731C42.292 12.7284 40.3417 14.0456 36.86 14.0456C34.303 14.0456 32.2516 13.235 31.4281 12.4824C31.1392 12.1929 31.0958 11.831 31.2547 11.4692Z" fill="white"/>
<path d="M56.6218 13.8715H55.4372C54.8593 13.8715 54.6715 13.7847 54.3826 13.3505L52.1578 10.0648C51.84 9.61611 51.5944 9.50031 50.9298 9.50031H48.7051V13.061C48.7051 13.6689 48.4884 13.8715 47.896 13.8715H47.0437C46.4369 13.8715 46.2347 13.6544 46.2347 13.061V2.379H45.4401C44.8334 2.379 44.6311 2.16189 44.6311 1.56845V0.844735C44.6311 0.236819 44.8478 0.0341797 45.4401 0.0341797H47.9105C48.5172 0.0341797 48.7195 0.251293 48.7195 0.844735V7.09759H50.7131C51.3777 7.09759 51.6088 6.99627 51.9411 6.5331L53.8047 3.65273C54.1081 3.20403 54.2959 3.11719 54.8738 3.11719H56.0584C56.7085 3.11719 56.8241 3.63826 56.4629 4.1738L54.3826 7.32918C54.1659 7.63314 53.9058 7.95157 53.6602 8.21211C53.9203 8.42922 54.2814 8.79108 54.4259 9.00819L57.0263 12.8439C57.3875 13.3505 57.2574 13.8715 56.6218 13.8715Z" fill="white"/>
<path d="M60.8492 15.8397V15.1305C60.8492 14.5226 61.0659 14.3199 61.6582 14.3199H62.6839C63.3051 14.3199 63.6085 14.1896 63.8396 13.6975L63.9696 13.4225L59.0578 4.11559C58.7544 3.5511 59 3.13135 59.6356 3.13135H60.748C61.3259 3.13135 61.5859 3.23267 61.8026 3.65242L63.8541 7.87889C64.3308 8.84866 64.8653 9.96317 65.2843 10.9329C65.7177 9.99212 66.2089 8.90656 66.6712 7.96573L68.7659 3.65242C68.9537 3.24714 69.2426 3.13135 69.8205 3.13135H70.9329C71.583 3.13135 71.8141 3.56557 71.5108 4.11559L65.9199 14.7541C65.2698 15.9844 64.5331 16.6647 62.8572 16.6647H61.6293C61.0514 16.6647 60.8492 16.4476 60.8492 15.8397Z" fill="white"/>
<path d="M86.6176 8.50194C86.6176 11.9179 84.0895 14.0456 80.6801 14.0456C79.2065 14.0456 78.0797 13.6837 77.2851 13.235V16.1588C77.2851 16.7667 77.0684 16.9694 76.4761 16.9694H75.6238C75.017 16.9694 74.8148 16.7522 74.8148 16.1588V5.47683H74.0202C73.4134 5.47683 73.2112 5.25972 73.2112 4.66628V3.94257C73.2112 3.33465 73.4279 3.13201 74.0202 3.13201H76.1005C76.7073 3.13201 76.9095 3.34913 76.9095 3.94257V4.00046C77.7185 3.46492 78.9465 2.94385 80.6801 2.94385C84.0895 2.95832 86.6176 5.08603 86.6176 8.50194ZM84.0461 8.50194C84.0461 6.5045 82.4426 5.38999 80.4489 5.38999C79.0187 5.38999 77.8485 5.99791 77.2996 6.49003V10.5283C77.863 11.0205 79.0187 11.6284 80.4489 11.6284C82.4426 11.6139 84.0461 10.4994 84.0461 8.50194Z" fill="white"/>
<path d="M100.077 7.66261C100.077 8.27053 99.8602 8.47317 99.2679 8.47317H98.4155C97.8088 8.47317 97.6065 8.29948 97.6065 7.66261C97.6065 6.07045 96.9998 5.36121 95.5551 5.36121C94.1827 5.36121 93.0414 6.21519 92.4057 7.25734V13.0615C92.4057 13.6694 92.189 13.872 91.5967 13.872H90.7444C90.1376 13.872 89.9354 13.6549 89.9354 13.0615V5.47701H89.1408C88.534 5.47701 88.3318 5.2599 88.3318 4.66645V3.94274C88.3318 3.33483 88.5485 3.13219 89.1408 3.13219H91.2211C91.8279 3.13219 92.0301 3.3493 92.0301 3.94274V4.6375C92.7958 3.78353 93.966 2.9585 95.9596 2.9585C98.8778 2.9585 100.077 4.6954 100.077 7.66261Z" fill="white"/>
<path d="M101.61 8.50212C101.61 5.31779 104.297 2.9585 107.865 2.9585C111.405 2.9585 114.078 5.31779 114.078 8.50212C114.078 11.7009 111.39 14.0602 107.865 14.0602C104.297 14.0602 101.61 11.7009 101.61 8.50212ZM111.622 8.50212C111.622 6.64942 109.989 5.30332 107.865 5.30332C105.698 5.30332 104.066 6.66389 104.066 8.50212C104.066 10.3693 105.698 11.7299 107.865 11.7299C110.004 11.7299 111.622 10.3693 111.622 8.50212Z" fill="white"/>
<defs>
<filter id="filter0_f_1_2601" x="-8.18531" y="-8.92799" width="33.2092" height="34.8574" filterUnits="userSpaceOnUse" color-interpolation-filters="sRGB">
<feFlood flood-opacity="0" result="BackgroundImageFix"/>
<feBlend mode="normal" in="SourceGraphic" in2="BackgroundImageFix" result="shape"/>
<feGaussianBlur stdDeviation="4.46473" result="effect1_foregroundBlur_1_2601"/>
</filter>
</defs>
</svg>
